<svg width="159" height="42" viewBox="0 0 159 42" fill="none" xmlns="http://www.w3.org/2000/svg">
<path d="M20.3344 34.3232C20.5947 34.5838 20.9477 34.7304 21.316 34.731C22.067 34.731 22.703 34.093 22.703 33.34V8.36998C22.703 8.00168 22.5568 7.64843 22.2966 7.38781C22.0363 7.12719 21.6833 6.98051 21.315 6.97998C20.535 6.97998 19.928 7.61698 19.928 8.36998V33.341C19.928 33.7093 20.0742 34.0625 20.3344 34.3232Z" fill="#103348"/>
<path d="M8.883 22.247H15.533L15.534 22.246C15.9027 22.246 16.2562 22.0995 16.5169 21.8389C16.7776 21.5782 16.924 21.2246 16.924 20.856C16.924 20.4873 16.7776 20.1338 16.5169 19.8731C16.2562 19.6124 15.9027 19.466 15.534 19.466H8.884C8.103 19.466 7.496 20.074 7.496 20.857C7.496 21.2251 7.64204 21.5782 7.90206 21.8388C8.16209 22.0994 8.51487 22.2462 8.883 22.247Z" fill="#103348"/>
<path d="M27.098 22.247H33.776C34.528 22.247 35.135 21.638 35.135 20.856C35.135 20.4879 34.989 20.1348 34.7289 19.8742C34.4689 19.6136 34.1161 19.4668 33.748 19.466H27.098C26.317 19.466 25.71 20.074 25.71 20.857C25.71 21.2253 25.8562 21.5785 26.1164 21.8392C26.3767 22.0998 26.7297 22.2465 27.098 22.247Z" fill="#103348"/>
<path fill-rule="evenodd" clip-rule="evenodd" d="M0.5 20.856C0.5 32.356 9.838 41.712 21.316 41.712C32.794 41.712 42.132 32.356 42.132 20.856C42.132 9.356 32.794 0 21.316 0C9.838 0 0.5 9.356 0.5 20.856ZM3.276 20.856C3.276 10.891 11.371 2.781 21.316 2.781C31.262 2.781 39.356 10.891 39.356 20.856C39.356 30.821 31.262 38.931 21.316 38.931C11.371 38.931 3.276 30.821 3.276 20.856Z" fill="#103348"/>
<path d="M55.923 12.687V15.178H59.97V29.053H62.804V15.178H66.88V12.687H55.923Z" fill="#103348"/>
<path d="M72.691 19.639C73.1369 19.6382 73.582 19.677 74.021 19.755V17.235L74.0019 17.2331C73.7192 17.2047 73.4335 17.176 73.01 17.176C71.477 17.176 70.32 18.191 69.8 19.176H69.742V17.554H67.111V29.024H69.801V23.231C69.801 20.827 70.87 19.639 72.691 19.639Z" fill="#103348"/>
<path fill-rule="evenodd" clip-rule="evenodd" d="M86.916 29.024V17.553H84.314V19.117H84.256C83.562 18.219 82.405 17.206 80.497 17.206C77.375 17.206 74.802 19.639 74.802 23.289C74.802 27.402 77.722 29.459 80.295 29.459C82.203 29.459 83.447 28.561 84.227 27.576H84.285V29.024H86.916ZM84.4 23.346C84.4 25.548 82.752 27.084 80.989 27.084C78.618 27.084 77.519 25.2 77.519 23.289C77.519 21.406 78.647 19.494 81.018 19.494C82.897 19.494 84.4 21.029 84.4 23.346Z" fill="#103348"/>
<path d="M92.67 17.553H90.01L90.009 29.053H92.698V22.97C92.698 20.74 93.854 19.552 95.531 19.552C97.064 19.552 97.988 20.594 97.988 22.564V29.024H100.678V22.42C100.678 18.741 98.596 17.177 96.225 17.177C94.953 17.177 93.623 17.698 92.727 19.002H92.67V17.553Z" fill="#103348"/>
<path d="M107.269 19.118C108.05 19.118 108.686 19.668 108.802 20.508L111.23 20.507C110.941 18.625 109.64 17.177 107.182 17.177C104.754 17.177 103.279 18.567 103.279 20.45C103.279 22.246 104.378 23.318 106.518 24.013C108.426 24.65 108.917 25.201 108.917 26.069C108.917 26.852 108.339 27.489 107.327 27.489C106.142 27.489 105.563 26.765 105.448 25.809H102.961C103.164 27.952 104.523 29.459 107.269 29.459C109.9 29.459 111.49 27.981 111.49 25.867C111.49 24.245 110.623 22.97 108.165 22.188C106.171 21.522 105.824 21.029 105.824 20.334C105.824 19.697 106.344 19.118 107.269 19.118Z" fill="#103348"/>
<path d="M116.81 12.281H113.832V15.004H116.81V12.281Z" fill="#103348"/>
<path d="M116.665 17.553H113.977V29.053H116.665V17.553Z" fill="#103348"/>
<path d="M123.43 19.118C124.211 19.118 124.847 19.668 124.963 20.508L127.391 20.507C127.102 18.625 125.801 17.177 123.344 17.177C120.915 17.177 119.441 18.567 119.441 20.45C119.441 22.246 120.539 23.318 122.679 24.013C124.587 24.65 125.078 25.201 125.078 26.069C125.078 26.852 124.5 27.489 123.488 27.489C122.303 27.489 121.725 26.765 121.609 25.809H119.123C119.325 27.952 120.684 29.459 123.43 29.459C126.061 29.459 127.651 27.981 127.651 25.867C127.651 24.245 126.784 22.97 124.327 22.188C122.332 21.522 121.985 21.029 121.985 20.334C121.985 19.697 122.505 19.118 123.43 19.118Z" fill="#103348"/>
<path d="M130.253 17.553H128.808V19.813H130.253V25.085C130.253 27.431 131.005 29.169 133.867 29.169C134.532 29.169 135.284 29.082 135.891 28.908V26.736C135.486 26.852 134.966 26.939 134.503 26.939C133.405 26.939 132.913 26.504 132.913 24.94V19.813H135.804V17.553H132.942V13.875H130.253V17.553Z" fill="#103348"/>
<path fill-rule="evenodd" clip-rule="evenodd" d="M149.248 23.289C149.248 19.813 146.704 17.177 143.119 17.177C139.65 17.177 136.99 19.726 136.99 23.289C136.99 26.765 139.621 29.459 143.119 29.459C146.675 29.459 149.248 26.678 149.248 23.289ZM146.53 23.289C146.53 25.432 145.143 27.054 143.119 27.054C141.269 27.054 139.707 25.49 139.707 23.289C139.707 21.145 141.066 19.552 143.119 19.552C145.229 19.552 146.53 21.261 146.53 23.289Z" fill="#103348"/>
<path d="M154.28 23.231C154.28 20.827 155.349 19.639 157.171 19.639C157.617 19.6382 158.062 19.677 158.501 19.755V17.235L158.48 17.2329C158.197 17.2045 157.912 17.176 157.489 17.176C155.956 17.176 154.8 18.191 154.28 19.176H154.222V17.554H151.591V29.024H154.28V23.231Z" fill="#103348"/>
</svg>
