<svg width="181" height="30" viewBox="0 0 181 30" fill="none" xmlns="http://www.w3.org/2000/svg">
<path fill-rule="evenodd" clip-rule="evenodd" d="M35.2457 7.0646L42.8417 11.4503C42.623 9.6471 41.7452 7.9417 40.3094 6.7147H44.3748C43.0248 4.9172 40.875 3.7545 38.4545 3.7545C38.2396 3.7545 38.0266 3.7637 37.8165 3.7816L43.3351 0.595848C41.2672 -0.285722 38.8235 -0.217912 36.7267 0.992728C35.7014 1.5845 34.8718 2.3847 34.2599 3.3087C33.648 2.3847 32.8174 1.5845 31.7921 0.992728C29.6953 -0.217912 27.2526 -0.285722 25.1847 0.595848L30.7023 3.7816C30.4932 3.7637 30.2802 3.7545 30.0663 3.7545C27.6448 3.7545 25.495 4.9172 24.145 6.7147H28.2094C26.7746 7.9417 25.8968 9.6471 25.6781 11.4505L33.2722 7.0658V27.436H28.3385V12.1934L23.2433 15.1352L23.7191 11.213C23.8243 10.3454 24.0503 9.4949 24.3904 8.6883H21.3091L0.5 13.8906L0.97863 15.8051L4.657 14.8855V27.436H0.71007V29.4095H44.1261V27.436H35.2457V7.0646ZM24.3916 17.5688V27.436H18.4712V17.5688H24.3916ZM11.5641 21.5157C12.654 21.5157 13.5376 20.6322 13.5376 19.5423C13.5376 18.4524 12.654 17.5688 11.5641 17.5688C10.4742 17.5688 9.5907 18.4524 9.5907 19.5423C9.5907 20.6322 10.4742 21.5157 11.5641 21.5157Z" fill="#103348"/>
<path d="M59.7666 26.6415H63.4846L66.5868 15.7006L69.7128 26.6415H73.4308L78.0723 10.0645H74.6385L71.4652 22.3551L67.984 10.0645H65.1896L61.7321 22.3551L58.5588 10.0645H55.125L59.7666 26.6415Z" fill="#103348"/>
<path fill-rule="evenodd" clip-rule="evenodd" d="M84.0508 26.973C87.532 26.973 90.3264 24.2497 90.3264 20.7211C90.3264 17.1926 87.532 14.4692 84.0508 14.4692C80.5696 14.4692 77.7989 17.1926 77.7989 20.7211C77.7989 24.2497 80.5696 26.973 84.0508 26.973ZM84.0508 23.9892C82.251 23.9892 80.8538 22.6393 80.8538 20.7211C80.8538 18.8029 82.251 17.4531 84.0508 17.4531C85.8743 17.4531 87.2715 18.8029 87.2715 20.7211C87.2715 22.6393 85.8743 23.9892 84.0508 23.9892Z" fill="#103348"/>
<path d="M95.5304 14.8006V16.8373C96.1461 15.2269 97.638 14.5638 99.13 14.5638V17.974C97.543 17.7845 95.5304 18.495 95.5304 20.9815V26.6414H92.4755V14.8006H95.5304Z" fill="#103348"/>
<path d="M111.834 26.6415L106.932 20.6501L111.692 14.8007H108.045L103.972 20.0107V10.0645H100.917V26.6415H103.972V21.2658L108.282 26.6415H111.834Z" fill="#103348"/>
<path d="M118.996 26.9733C121.317 26.9733 123.33 25.7418 124.348 23.8947L121.696 22.3791C121.222 23.35 120.204 23.942 118.972 23.942C117.149 23.942 115.799 22.5922 115.799 20.7214C115.799 18.8268 117.149 17.477 118.972 17.477C120.18 17.477 121.198 18.0927 121.672 19.0637L124.301 17.5244C123.33 15.7009 121.317 14.4694 118.996 14.4694C115.396 14.4694 112.744 17.1928 112.744 20.7214C112.744 24.2499 115.396 26.9733 118.996 26.9733Z" fill="#103348"/>
<path fill-rule="evenodd" clip-rule="evenodd" d="M134.778 16.1982V14.801H137.833V26.6417H134.778V25.2445C133.925 26.3102 132.646 26.9733 130.918 26.9733C127.768 26.9733 125.163 24.2499 125.163 20.7214C125.163 17.1928 127.768 14.4694 130.918 14.4694C132.646 14.4694 133.925 15.1325 134.778 16.1982ZM128.218 20.7214C128.218 22.7106 129.615 24.0604 131.486 24.0604C133.381 24.0604 134.778 22.7106 134.778 20.7214C134.778 18.7321 133.381 17.3823 131.486 17.3823C129.615 17.3823 128.218 18.7321 128.218 20.7214Z" fill="#103348"/>
<path d="M147.376 17.7375V14.801H144.7V11.4856L141.645 12.4092V14.801H139.585V17.7375H141.645V22.6632C141.645 25.8602 143.089 27.1154 147.376 26.6417V23.871C145.623 23.9657 144.7 23.942 144.7 22.6632V17.7375H147.376Z" fill="#103348"/>
<path d="M152.94 11.5093C152.94 12.5276 152.087 13.3801 151.045 13.3801C150.027 13.3801 149.174 12.5276 149.174 11.5093C149.174 10.491 150.027 9.61475 151.045 9.61475C152.087 9.61475 152.94 10.491 152.94 11.5093Z" fill="#103348"/>
<path d="M152.585 26.6417H149.53V14.801H152.585V26.6417Z" fill="#103348"/>
<path fill-rule="evenodd" clip-rule="evenodd" d="M161.017 26.9733C164.498 26.9733 167.292 24.2499 167.292 20.7214C167.292 17.1928 164.498 14.4694 161.017 14.4694C157.536 14.4694 154.765 17.1928 154.765 20.7214C154.765 24.2499 157.536 26.9733 161.017 26.9733ZM161.017 23.9894C159.217 23.9894 157.82 22.6396 157.82 20.7214C157.82 18.8032 159.217 17.4533 161.017 17.4533C162.84 17.4533 164.237 18.8032 164.237 20.7214C164.237 22.6396 162.84 23.9894 161.017 23.9894Z" fill="#103348"/>
<path d="M172.496 16.1272C173.207 15.0615 174.438 14.4694 176.025 14.4694C178.535 14.4694 180.501 16.2219 180.501 19.3715V26.6417H177.446V19.7504C177.446 18.1401 176.475 17.3112 175.101 17.3112C173.609 17.3112 172.496 18.1874 172.496 20.2477V26.6417H169.441V14.801H172.496V16.1272Z" fill="#103348"/>
</svg>
